<?xml version="1.0" encoding="UTF-8"?>
<svg height="600" width="800" xmlns="http://www.w3.org/2000/svg" xmlns:xlink="http://www.w3.org/1999/xlink">
    <g id="Notes" font-family="'LucidaGrande', 'Lucida Grande', sans-serif" font-size="13">
        <rect fill="white" height="600.0" width="800.0" x="0.0" y="0.0" />
        <g font-size="13">
            <text x="18.0" y="176.0">Small</text>
            <text x="18.0" y="376.0">Medium</text>
            <text x="18.0" y="576.0">Large</text>
        </g>
        <g font-size="9">
            <text x="250.0" y="30.0">Ultralight</text>
            <text x="450.0" y="30.0">Regular</text>
            <text x="650.0" y="30.0">Black</text>
            <text id="template-version" fill="#505050" text-anchor="end" x="785.0" y="575.0">Template v.3.0</text>
            <a href="https://wangchujiang.com/#/app">
                <text fill="#505050" text-anchor="end" x="785.0" y="590.0">https://wangchujiang.com/#/app</text>
            </a>
        </g>
    </g>
    <g id="Guides" stroke="rgb(39, 170, 225)" stroke-width="0.5">
        <path id="Capline-S" d="M18,76 l800,0" />
        <path id="H-reference" d="M85,145.755 L87.685,145.755 L113.369,79.287 L114.052,79.287 L114.052,76 L112.148,76 L85,145.755 Z M95.693,121.536 L130.996,121.536 L130.263,119.313 L96.474,119.313 L95.693,121.536 Z M139.15,145.755 L141.787,145.755 L114.638,76 L113.466,76 L113.466,79.287 L139.15,145.755 Z" stroke="none" />
        <path id="Baseline-S" d="M18,146 l800,0" />
        <path id="left-margin-Ultralight-S" d="M211,56 l0,110" />
        <path id="right-margin-Ultralight-S" d="M319,56 l0,110" />
        <path id="left-margin-Regular-S" d="M411,56 l0,110" />
        <path id="right-margin-Regular-S" d="M519,56 l0,110" />
        <path id="left-margin-Black-S" d="M611,56 l0,110" />
        <path id="right-margin-Black-S" d="M719,56 l0,110" />
        <path id="Capline-M" d="M18,276 l800,0" />
        <path id="Baseline-M" d="M18,346 l800,0" />
        <path id="Capline-L" d="M18,476 l800,0" />
        <path id="Baseline-L" d="M18,546 l800,0" />
    </g>
    <g id="Symbols">
        <g id="Ultralight-S">
            <path d="M281.581,110.892 C281.581,114.143 280.606,117.286 278.98,119.887 L285.591,126.606 C288.842,122.271 290.901,116.744 290.901,110.892 C290.901,105.039 288.842,99.512 285.591,95.177 L278.98,101.897 C280.606,104.498 281.581,107.532 281.581,110.892 Z" />
            <path d="M265,127.581 C255.897,127.581 248.419,120.103 248.419,110.892 C248.419,101.68 255.897,94.202 265,94.202 C268.36,94.202 271.394,95.177 273.995,96.911 L280.606,90.192 C276.271,86.941 270.852,84.882 265,84.882 C250.695,84.882 238.99,96.478 238.99,111 C238.99,125.522 250.695,136.901 265,136.901 C270.961,136.901 276.379,134.842 280.823,131.591 L274.212,124.872 C271.611,126.498 268.468,127.473 265.108,127.473 L265,127.581 Z" />
        </g>
        <g id="Regular-S">
            <path d="M481.581,110.892 C481.581,114.143 480.606,117.286 478.98,119.887 L485.591,126.606 C488.842,122.271 490.901,116.744 490.901,110.892 C490.901,105.039 488.842,99.512 485.591,95.177 L478.98,101.897 C480.606,104.498 481.581,107.532 481.581,110.892 Z" />
            <path d="M465,127.581 C455.897,127.581 448.419,120.103 448.419,110.892 C448.419,101.68 455.897,94.202 465,94.202 C468.36,94.202 471.394,95.177 473.995,96.911 L480.606,90.192 C476.271,86.941 470.852,84.882 465,84.882 C450.695,84.882 438.99,96.478 438.99,111 C438.99,125.522 450.695,136.901 465,136.901 C470.961,136.901 476.379,134.842 480.823,131.591 L474.212,124.872 C471.611,126.498 468.468,127.473 465.108,127.473 L465,127.581 Z" />
        </g>
        <g id="Black-S">
            <path d="M681.581,110.892 C681.581,114.143 680.606,117.286 678.98,119.887 L685.591,126.606 C688.842,122.271 690.901,116.744 690.901,110.892 C690.901,105.039 688.842,99.512 685.591,95.177 L678.98,101.897 C680.606,104.498 681.581,107.532 681.581,110.892 Z" />
            <path d="M665,127.581 C655.897,127.581 648.419,120.103 648.419,110.892 C648.419,101.68 655.897,94.202 665,94.202 C668.36,94.202 671.394,95.177 673.995,96.911 L680.606,90.192 C676.271,86.941 670.852,84.882 665,84.882 C650.695,84.882 638.99,96.478 638.99,111 C638.99,125.522 650.695,136.901 665,136.901 C670.961,136.901 676.379,134.842 680.823,131.591 L674.212,124.872 C671.611,126.498 668.468,127.473 665.108,127.473 L665,127.581 Z" />
        </g>
    </g>
</svg>